<svg xmlns="http://www.w3.org/2000/svg" width="302" height="96" viewBox="0 0 302 96">
  <defs>
    <style>
      .cls-1 {
        stroke: #000;
        stroke-width: 1px;
        fill-rule: evenodd;
      }
    </style>
  </defs>
  <path id="Bulletin" class="cls-1" d="M26.923,94.221q12.145,0,18.707-6.836t6.561-18.8a25.159,25.159,0,0,0-3.571-13.672,16.9,16.9,0,0,0-9.674-7.507,20.914,20.914,0,0,0,8.423-7.385,19.62,19.62,0,0,0,3.113-10.986q0-11.84-6.134-17.761t-18.28-5.92H0.739V94.221H26.923Zm0.488-41.565q13.55,0,13.55,16.052,0,7.569-3.723,11.749a12.806,12.806,0,0,1-10.071,4.181H11.908V52.656h15.5Zm-15.5-37.72h14.16q6.652,0,9.888,3.334t3.235,10.674q0,6.483-3.571,10.4a12.081,12.081,0,0,1-9.369,3.915H11.908V14.937ZM93.825,94.221h10.254V28.181h-10.8V77.07q-3.724,8.789-13.55,8.789-9.278,0-9.277-15.442V28.181H59.706v43.03q0.06,11.842,4.639,18.036t13.55,6.2q10.314,0,15.686-7.019Zm30.647-93.75h-10.8v93.75h10.8V0.471Zm21.125,0h-10.8v93.75h10.8V0.471Zm54.512,85.083-5.615-6.836a20.851,20.851,0,0,1-6.806,5.707,18.654,18.654,0,0,1-8.392,1.8q-7.507,0-11.5-4.822t-4-15.442V64.436h36.865v-7.08q-0.123-15.624-5.859-23.01T177.465,26.96q-11.537,0-17.975,8.392t-6.439,23.163v8q0.122,14.222,6.714,21.576t18.92,7.355q14.4,0,21.424-9.888h0ZM186.467,40.266q2.961,4.028,3.388,13.428v1.465h-26q0.426-9.7,3.662-14.313t9.949-4.608Q183.507,36.238,186.467,40.266ZM209.516,12.19V28.181H199.445v8.728h10.071V77.925q0,8.363,3.356,12.939t9.766,4.578a23.719,23.719,0,0,0,7.507-1.213l0.123-9.1a13.651,13.651,0,0,1-4.334.732q-3.112,0-4.4-2.016a11.156,11.156,0,0,1-1.281-5.928V36.909h9.948V28.181h-9.948V12.19H209.516Zm37.666,15.991h-10.8v66.04h10.8V28.181Zm-0.7-22.125a6.484,6.484,0,0,0-9.186-.031,7.149,7.149,0,0,0-1.526,4.639,6.905,6.905,0,0,0,1.526,4.578,5.614,5.614,0,0,0,4.577,1.831,5.693,5.693,0,0,0,4.639-1.831,6.911,6.911,0,0,0,1.526-4.578A7.1,7.1,0,0,0,246.48,6.056Zm10.169,22.125v66.04h10.8V46.248a19.343,19.343,0,0,1,5.157-7.019,10.963,10.963,0,0,1,7.233-2.686q5.187,0,7.782,3.265t2.594,11.017v43.4h10.742V50.337Q300.717,26.961,283.2,26.96q-9.766,0-16.053,8.362l-0.305-7.141H256.649Z"/>
</svg>
