<svg xmlns="http://www.w3.org/2000/svg" width="352" height="146" viewBox="0 0 352 146">
  <defs>
    <style>
      .cls-1 {
        fill: beige;
      }

      .cls-2 {
        fill: #1e3685;
        fill-rule: evenodd;
      }
    </style>
  </defs>
  <rect id="Rounded_Rectangle_1" data-name="Rounded Rectangle 1" class="cls-1" width="351" height="145" rx="11" ry="11"/>
  <path id="Bulletin" class="cls-2" d="M84.433,107.181q8.974,0,13.822-5.051T103.1,88.24a18.588,18.588,0,0,0-2.638-10.1,12.489,12.489,0,0,0-7.148-5.547,15.453,15.453,0,0,0,6.224-5.457,14.5,14.5,0,0,0,2.3-8.118q0-8.749-4.533-13.123T83.8,41.518H65.086v65.663H84.433Zm0.361-30.712q10.012,0,10.012,11.861,0,5.592-2.751,8.681a9.462,9.462,0,0,1-7.441,3.089H73.339V76.469H84.794ZM73.339,48.6H83.8q4.915,0,7.306,2.464t2.39,7.886a10.959,10.959,0,0,1-2.638,7.683,8.926,8.926,0,0,1-6.922,2.893h-10.6V48.6Zm60.526,58.582h7.577v-48.8H133.46V94.508Q130.707,101,123.448,101q-6.855,0-6.855-11.409V58.385h-7.937V90.179q0.043,8.75,3.427,13.326t10.012,4.578q7.621,0,11.59-5.186Zm22.645-69.27h-7.982v69.27h7.982V37.911Zm15.609,0h-7.982v69.27h7.982V37.911ZM212.4,100.777l-4.149-5.051a15.41,15.41,0,0,1-5.028,4.217,13.785,13.785,0,0,1-6.2,1.33q-5.547,0-8.5-3.563T185.564,86.3V85.173H212.8V79.942q-0.091-11.544-4.33-17t-12.807-5.457q-8.524,0-13.282,6.2T177.627,80.8v5.908q0.089,10.509,4.96,15.943t13.981,5.434q10.643,0,15.829-7.306h0ZM202.318,67.314q2.187,2.976,2.5,9.921v1.082H185.609q0.315-7.17,2.706-10.575t7.351-3.4Q200.13,64.338,202.318,67.314Zm17.029-20.745V58.385h-7.441v6.449h7.441V95.14q0,6.179,2.481,9.56a8.391,8.391,0,0,0,7.215,3.383,17.52,17.52,0,0,0,5.548-.9l0.09-6.725a10.082,10.082,0,0,1-3.2.541,3.544,3.544,0,0,1-3.247-1.489,8.233,8.233,0,0,1-.947-4.38v-30.3h7.351V58.385h-7.351V46.569h-7.938Zm27.831,11.816H239.2v48.8h7.982v-48.8ZM246.66,42.037a4.792,4.792,0,0,0-6.788-.023,5.289,5.289,0,0,0-1.127,3.428,5.108,5.108,0,0,0,1.127,3.382,4.152,4.152,0,0,0,3.383,1.353,4.207,4.207,0,0,0,3.427-1.353,5.109,5.109,0,0,0,1.128-3.382A5.245,5.245,0,0,0,246.66,42.037Zm7.514,16.348v48.8h7.982V71.734a14.294,14.294,0,0,1,3.811-5.186,8.1,8.1,0,0,1,5.344-1.984,6.9,6.9,0,0,1,5.75,2.413q1.916,2.413,1.917,8.14v32.065h7.937V74.756q-0.182-17.272-13.124-17.272a14.24,14.24,0,0,0-11.86,6.178l-0.226-5.276h-7.531Z"/>
</svg>
